<svg width="32" height="32" viewBox="0 0 32 32" fill="none" xmlns="http://www.w3.org/2000/svg">
<path d="M15.0621 6.53451C15.3843 5.66389 16.6157 5.66389 16.9379 6.53451L19.0815 12.3277C19.1828 12.6014 19.3986 12.8172 19.6723 12.9185L25.4655 15.0621C26.3361 15.3843 26.3361 16.6157 25.4655 16.9379L19.6723 19.0815C19.3986 19.1828 19.1828 19.3986 19.0815 19.6723L16.9379 25.4655C16.6157 26.3361 15.3843 26.3361 15.0621 25.4655L12.9185 19.6723C12.8172 19.3986 12.6014 19.1828 12.3277 19.0815L6.53451 16.9379C5.66389 16.6157 5.66389 15.3843 6.53451 15.0621L12.3277 12.9185C12.6014 12.8172 12.8172 12.6014 12.9185 12.3277L15.0621 6.53451Z" stroke="white" stroke-width="2"/>
</svg>
