<svg width="688" height="144" viewBox="0 0 688 144" fill="none" xmlns="http://www.w3.org/2000/svg">
<path d="M252.13 23.07C252.13 22.12 252.9 21.36 253.84 21.36H292.12C302.87 21.36 311.81 23.55 318.95 27.94C326.09 32.33 331.35 38.24 334.75 45.68C338.15 53.12 339.85 61.57 339.85 71.03C339.85 81.01 338 89.84 334.3 97.54C330.6 105.24 325.23 111.24 318.18 115.54C311.13 119.84 302.83 121.99 293.28 121.99H253.84C252.89 121.99 252.13 121.22 252.13 120.28V23.07ZM275.1 101.34H290.19C294.83 101.34 299.09 100.55 302.96 98.95C306.83 97.36 310.06 94.39 312.63 90.05C315.21 85.71 316.5 79.71 316.5 72.05C316.5 63.11 314.82 56.42 311.47 51.99C308.12 47.56 304.37 44.79 300.25 43.67C296.12 42.55 291.52 41.99 286.45 41.99H276.17C275.22 41.99 274.46 42.76 274.46 43.7V101.33H275.11L275.1 101.34Z" fill="white"/>
<path d="M351.74 49.74H369.38C370.32 49.74 371.07 50.5 371.07 51.43V120.28C371.07 121.22 370.31 121.97 369.38 121.97H351.74C350.8 121.97 350.05 121.21 350.05 120.28V51.43C350.05 50.49 350.81 49.74 351.74 49.74ZM351.74 21.36H369.38C370.32 21.36 371.07 22.12 371.07 23.05V36.4C371.07 37.34 370.31 38.09 369.38 38.09H351.74C350.8 38.09 350.05 37.33 350.05 36.4V23.05C350.05 22.11 350.81 21.36 351.74 21.36Z" fill="white"/>
<path d="M437.03 49.74H454.36C455.31 49.74 456.08 50.51 456.08 51.46V59.8H456.6C458.66 56.28 461.33 53.37 464.6 51.09C467.87 48.81 471.65 47.67 475.95 47.67C477.76 47.67 479.56 47.92 481.37 48.43C482.12 48.64 482.66 49.31 482.66 50.1V70.21C482.66 71.32 481.62 72.12 480.54 71.88C479.81 71.72 479.05 71.58 478.28 71.48C476.73 71.2701 475.27 71.16 473.89 71.16C468.64 71.16 464.73 72.45 462.15 75.03C459.57 77.61 457.96 80.6 457.31 84C456.67 87.4 456.34 91.33 456.34 95.8V120.27C456.34 121.22 455.57 121.99 454.62 121.99H437.03C436.08 121.99 435.31 121.22 435.31 120.27V51.46C435.31 50.51 436.08 49.74 437.03 49.74Z" fill="white"/>
<path d="M497.42 121.72C493.68 120.09 490.65 117.64 488.33 114.37C486.01 111.1 484.85 107.1 484.85 102.37C484.85 98.0701 485.82 94.5001 487.75 91.6601C489.69 88.8201 492.31 86.5601 495.62 84.8901C498.93 83.2101 502.82 81.9001 507.29 80.9601C507.81 80.7901 508.36 80.6601 508.97 80.5701C514.99 79.2801 519.2 78.3101 521.61 77.6701C524.02 77.0201 525.74 76.3001 526.77 75.4801C527.8 74.6601 528.32 73.5201 528.32 72.0601C528.32 70.6001 527.93 69.3101 527.16 68.1901C526.39 67.0701 525.27 66.2101 523.81 65.6101C522.35 65.0101 520.71 64.7101 518.91 64.7101C516.07 64.7101 513.53 65.5301 511.3 67.1601C509.4 68.5501 507.94 70.6501 506.91 73.4601C506.6 74.3201 505.66 74.7801 504.79 74.4801L488.49 68.9801C487.6 68.6801 487.13 67.7001 487.44 66.8101C489.69 60.3401 493.51 55.6001 498.91 52.5801C504.76 49.3101 511.64 47.6801 519.55 47.6801C526 47.6801 531.44 48.6901 535.87 50.7101C540.3 52.7301 543.65 55.7001 545.93 59.6101C548.21 63.5201 549.35 68.2801 549.35 73.8601V101.34C549.43 106.16 549.65 110.05 550 113.01C550.26 115.31 550.66 117.62 551.18 119.94C551.42 120.99 550.61 121.98 549.54 121.98H532.07C531.34 121.98 530.69 121.5 530.46 120.81C530.19 119.99 529.99 119.15 529.88 118.31C529.71 117.06 529.62 115.71 529.62 114.25H529.36C527.64 117.35 524.95 119.78 521.3 121.54C517.64 123.3 513.71 124.18 509.5 124.18C505.29 124.18 501.18 123.36 497.44 121.73L497.42 121.72ZM522.45 106.43C524.3 105.27 525.74 103.7 526.77 101.72C527.8 99.7401 528.32 97.59 528.32 95.2701V92.9201C528.32 91.8201 527.28 91.0201 526.21 91.2901C525.14 91.5601 524.28 91.7901 523.61 91.9801C522.53 92.2801 520.97 92.6901 518.9 93.2101C517.8 93.4601 516.58 93.7601 515.23 94.1001C515.18 94.1101 515.14 94.1201 515.09 94.1401C513.49 94.6501 512.15 95.2501 511.09 95.9201C510.01 96.6101 509.2 97.4501 508.64 98.4401C508.08 99.4301 507.8 100.53 507.8 101.73C507.8 103.88 508.53 105.49 509.99 106.57C511.45 107.65 513.39 108.18 515.79 108.18C518.37 108.18 520.58 107.6 522.43 106.44L522.45 106.43Z" fill="white"/>
<path d="M413.88 49.7401H425.75C426.69 49.7401 427.45 50.5 427.45 51.44V67.13C427.45 68.07 426.69 68.8301 425.75 68.8301H413.79C412.85 68.8301 412.09 69.59 412.09 70.53V120.28C412.09 121.22 411.33 121.98 410.39 121.98H392.77C391.83 121.98 391.07 121.22 391.07 120.28V70.53C391.07 69.59 390.31 68.8301 389.37 68.8301H382.06C381.12 68.8301 380.36 68.07 380.36 67.13V51.44C380.36 50.5 381.12 49.7401 382.06 49.7401H389.4C390.29 49.7401 391.06 49.0501 391.1 48.1501C391.93 29.7501 407.17 15.05 425.76 15.05C426.25 15.05 426.75 15.06 427.24 15.08C428.15 15.12 428.86 15.87 428.86 16.78V34.42C428.86 35.42 428 36.2001 427.01 36.1101C426.6 36.07 426.18 36.05 425.76 36.05C418.89 36.05 413.17 41.14 412.2 47.75C412.05 48.7901 412.83 49.7401 413.88 49.7401Z" fill="white"/>
<path d="M577.53 119.67C571.72 116.57 567.17 112.15 563.86 106.38C560.55 100.62 558.89 93.8701 558.89 86.1301C558.89 78.3901 560.5 71.6201 563.73 65.8101C566.96 60.0101 571.41 55.5501 577.08 52.4601C582.76 49.3601 589.12 47.8201 596.17 47.8201C604.34 47.8201 611.52 49.9101 617.71 54.0801C623.42 57.9301 627.56 63.0001 630.12 69.2901C630.48 70.1701 630.08 71.1801 629.2 71.5501L612.76 78.3601C611.89 78.7201 610.9 78.3001 610.53 77.4401C609.26 74.3801 607.48 72.1001 605.19 70.5901C602.52 68.8301 599.51 67.9501 596.16 67.9501C593.15 67.9501 590.44 68.7501 588.03 70.3401C585.62 71.9301 583.75 74.1001 582.42 76.8501C581.09 79.6001 580.42 82.6501 580.42 86.0101C580.42 89.7101 581.17 92.9301 582.68 95.6901C584.93 99.8001 588.33 102.47 592.88 103.71C593.59 103.9 594.31 104.04 595.04 104.11C599.03 104.52 602.69 103.65 606.02 101.5C608.42 99.9501 610.31 97.6601 611.66 94.6401C612.04 93.8001 613 93.4101 613.85 93.7601L630.46 100.49C631.35 100.85 631.75 101.86 631.39 102.75C628.82 109.13 624.66 114.24 618.91 118.08C612.67 122.25 605.34 124.34 596.92 124.34C589.78 124.34 583.31 122.79 577.51 119.7L577.53 119.67Z" fill="white"/>
<path d="M668.76 87.2901C668.76 99.3501 679.38 101.23 683.98 101.52C684.87 101.58 685.56 102.32 685.56 103.22V120.24C685.56 121.15 684.84 121.91 683.93 121.95C683.44 121.97 682.94 121.98 682.45 121.98C663.32 121.98 647.76 106.42 647.76 87.2901L647.72 81.4101V68.3401C647.72 67.4001 646.96 66.6401 646.02 66.6401H635.24C634.3 66.6401 633.54 65.8801 633.54 64.9401V49.2601C633.54 48.3201 634.3 47.5601 635.24 47.5601H646.02C646.96 47.5601 647.72 46.8001 647.72 45.8601V29.1501C647.72 28.2101 648.48 27.4501 649.42 27.4501H667.04C667.98 27.4501 668.74 28.2101 668.74 29.1501V45.8601C668.74 46.8001 669.5 47.5601 670.44 47.5601H685.74C686.68 47.5601 687.44 48.3201 687.44 49.2601V64.9401C687.44 65.8801 686.68 66.6401 685.74 66.6401H670.44C669.5 66.6401 668.74 67.4001 668.74 68.3401V87.2901H668.76Z" fill="white"/>
<path d="M189.08 46.34V96.93C189.08 99.41 192.52 100.06 193.42 97.75C196.59 89.66 198.33 80.85 198.33 71.63C198.33 62.41 196.59 53.6 193.42 45.51C192.52 43.2 189.08 43.85 189.08 46.33V46.34Z" fill="white"/>
<path d="M162.51 30.47V112.8C162.51 114.98 165.29 115.87 166.59 114.11C175.36 102.23 180.54 87.54 180.54 71.63C180.54 55.72 175.36 41.04 166.59 29.15C165.29 27.39 162.51 28.28 162.51 30.46V30.47Z" fill="white"/>
<path d="M137.18 22.06V121.21C137.18 123.2 139.58 124.2 141 122.81C154.27 109.81 162.51 91.68 162.51 71.63C162.51 51.58 154.27 33.45 141 20.45C139.58 19.06 137.18 20.06 137.18 22.05V22.06Z" fill="white"/>
<path d="M100.46 8.89997V134.32C100.46 135.96 102.18 137.06 103.66 136.35C127.87 124.86 144.61 100.19 144.61 71.61C144.61 43.03 127.88 18.36 103.67 6.86997C102.18 6.16997 100.47 7.25997 100.47 8.89997H100.46Z" fill="white"/>
<path d="M0.11 140.94L0 2.28C0 1.04 1 0.03 2.24 0.03L57.14 0C96.7 0 128.78 32.07 128.78 71.64C128.78 111.21 96.7 143.28 57.14 143.28L2.35 143.2C1.11 143.2 0.11 142.19 0.11 140.96V140.94ZM57.14 107.83C77.13 107.83 93.34 91.63 93.34 71.63C93.34 51.63 77.13 35.43 57.14 35.43L37.69 35.41C36.45 35.41 35.44 36.41 35.44 37.66V105.61C35.44 106.85 36.45 107.86 37.69 107.86L57.14 107.83Z" fill="white"/>
</svg>
